<mxfile host="app.diagrams.net" modified="2020-11-05T07:34:16.142Z" agent="5.0 (Windows NT 10.0; Win64; x64) AppleWebKit/537.36 (KHTML, like Gecko) Chrome/86.0.4240.111 Safari/537.36 Edg/86.0.622.61" etag="Zg1Or82a51KnfhBmq2Fc" version="13.9.1" type="github">
  <diagram name="Page-1" id="edf60f1a-56cd-e834-aa8a-f176f3a09ee4">
    <mxGraphModel dx="599" dy="299" grid="1" gridSize="10" guides="1" tooltips="1" connect="1" arrows="1" fold="1" page="1" pageScale="1" pageWidth="1100" pageHeight="850" background="#ffffff" math="0" shadow="0">
      <root>
        <mxCell id="0" />
        <mxCell id="1" parent="0" />
        <mxCell id="G2AsAImBGB42HTjXpqPa-2" value="" style="edgeStyle=orthogonalEdgeStyle;rounded=0;orthogonalLoop=1;jettySize=auto;html=1;exitX=0;exitY=0.75;exitDx=0;exitDy=0;" edge="1" parent="1" source="60e70716793133e9-9" target="60e70716793133e9-5">
          <mxGeometry relative="1" as="geometry">
            <mxPoint x="110" y="250" as="sourcePoint" />
            <Array as="points">
              <mxPoint x="190" y="370" />
              <mxPoint x="90" y="370" />
              <mxPoint x="90" y="250" />
            </Array>
          </mxGeometry>
        </mxCell>
        <mxCell id="60e70716793133e9-32" style="edgeStyle=orthogonalEdgeStyle;rounded=0;html=1;labelBackgroundColor=none;startSize=5;endArrow=classicThin;endFill=1;endSize=5;jettySize=auto;orthogonalLoop=1;strokeWidth=1;fontFamily=Verdana;fontSize=8" parent="1" source="60e70716793133e9-4" target="60e70716793133e9-5" edge="1">
          <mxGeometry relative="1" as="geometry" />
        </mxCell>
        <mxCell id="60e70716793133e9-4" value="Input value of x" style="rounded=0;whiteSpace=wrap;html=1;shadow=1;labelBackgroundColor=none;strokeWidth=1;fontFamily=Verdana;fontSize=8;align=center;" parent="1" vertex="1">
          <mxGeometry x="190" y="120" width="120" height="60" as="geometry" />
        </mxCell>
        <mxCell id="60e70716793133e9-33" value="Yes" style="edgeStyle=orthogonalEdgeStyle;rounded=0;html=1;labelBackgroundColor=none;startSize=5;endArrow=classicThin;endFill=1;endSize=5;jettySize=auto;orthogonalLoop=1;strokeWidth=1;fontFamily=Verdana;fontSize=8" parent="1" source="60e70716793133e9-5" target="60e70716793133e9-7" edge="1">
          <mxGeometry x="-0.7778" y="10" relative="1" as="geometry">
            <mxPoint as="offset" />
          </mxGeometry>
        </mxCell>
        <mxCell id="60e70716793133e9-37" value="No" style="edgeStyle=orthogonalEdgeStyle;rounded=0;html=1;labelBackgroundColor=none;startSize=5;endArrow=classicThin;endFill=1;endSize=5;jettySize=auto;orthogonalLoop=1;strokeWidth=1;fontFamily=Verdana;fontSize=8" parent="1" source="60e70716793133e9-5" target="60e70716793133e9-9" edge="1">
          <mxGeometry x="-0.5" y="10" relative="1" as="geometry">
            <mxPoint as="offset" />
          </mxGeometry>
        </mxCell>
        <mxCell id="60e70716793133e9-5" value="is n &amp;lt;= x?" style="rhombus;whiteSpace=wrap;html=1;rounded=0;shadow=1;labelBackgroundColor=none;strokeWidth=1;fontFamily=Verdana;fontSize=8;align=center;" parent="1" vertex="1">
          <mxGeometry x="200" y="220" width="100" height="60" as="geometry" />
        </mxCell>
        <mxCell id="60e70716793133e9-34" value="Yes" style="edgeStyle=orthogonalEdgeStyle;rounded=0;html=1;labelBackgroundColor=none;startSize=5;endArrow=classicThin;endFill=1;endSize=5;jettySize=auto;orthogonalLoop=1;strokeWidth=1;fontFamily=Verdana;fontSize=8" parent="1" source="60e70716793133e9-7" target="60e70716793133e9-8" edge="1">
          <mxGeometry x="-0.6667" y="10" relative="1" as="geometry">
            <mxPoint as="offset" />
          </mxGeometry>
        </mxCell>
        <mxCell id="G2AsAImBGB42HTjXpqPa-12" style="edgeStyle=orthogonalEdgeStyle;rounded=0;orthogonalLoop=1;jettySize=auto;html=1;" edge="1" parent="1" source="60e70716793133e9-7">
          <mxGeometry relative="1" as="geometry">
            <mxPoint x="440" y="450" as="targetPoint" />
          </mxGeometry>
        </mxCell>
        <mxCell id="60e70716793133e9-7" value="is x = 0?" style="rhombus;whiteSpace=wrap;html=1;rounded=0;shadow=1;labelBackgroundColor=none;strokeWidth=1;fontFamily=Verdana;fontSize=8;align=center;" parent="1" vertex="1">
          <mxGeometry x="390" y="220" width="100" height="60" as="geometry" />
        </mxCell>
        <mxCell id="G2AsAImBGB42HTjXpqPa-15" value="" style="edgeStyle=orthogonalEdgeStyle;rounded=0;orthogonalLoop=1;jettySize=auto;html=1;" edge="1" parent="1" source="60e70716793133e9-8" target="G2AsAImBGB42HTjXpqPa-14">
          <mxGeometry relative="1" as="geometry" />
        </mxCell>
        <mxCell id="60e70716793133e9-8" value="output true" style="rounded=1;whiteSpace=wrap;html=1;shadow=1;labelBackgroundColor=none;strokeWidth=1;fontFamily=Verdana;fontSize=8;align=center;" parent="1" vertex="1">
          <mxGeometry x="550" y="230" width="100" height="40" as="geometry" />
        </mxCell>
        <mxCell id="G2AsAImBGB42HTjXpqPa-7" style="edgeStyle=orthogonalEdgeStyle;rounded=0;orthogonalLoop=1;jettySize=auto;html=1;exitX=0.5;exitY=1;exitDx=0;exitDy=0;" edge="1" parent="1" source="60e70716793133e9-9">
          <mxGeometry relative="1" as="geometry">
            <mxPoint x="249.9655172413793" y="450" as="targetPoint" />
          </mxGeometry>
        </mxCell>
        <mxCell id="60e70716793133e9-9" value="subtract x to n" style="whiteSpace=wrap;html=1;rounded=0;shadow=1;labelBackgroundColor=none;strokeWidth=1;fontFamily=Verdana;fontSize=8;align=center;" parent="1" vertex="1">
          <mxGeometry x="190" y="350" width="120" height="40" as="geometry" />
        </mxCell>
        <mxCell id="60e70716793133e9-41" style="edgeStyle=orthogonalEdgeStyle;rounded=0;html=1;labelBackgroundColor=none;startSize=5;endArrow=classicThin;endFill=1;endSize=5;jettySize=auto;orthogonalLoop=1;strokeWidth=1;fontFamily=Verdana;fontSize=8" parent="1" edge="1">
          <mxGeometry relative="1" as="geometry">
            <mxPoint x="250.0344827586207" y="450" as="sourcePoint" />
            <mxPoint x="340.0344827586207" y="500" as="targetPoint" />
          </mxGeometry>
        </mxCell>
        <mxCell id="60e70716793133e9-40" style="edgeStyle=orthogonalEdgeStyle;rounded=0;html=1;labelBackgroundColor=none;startSize=5;endArrow=classicThin;endFill=1;endSize=5;jettySize=auto;orthogonalLoop=1;strokeWidth=1;fontFamily=Verdana;fontSize=8" parent="1" edge="1">
          <mxGeometry relative="1" as="geometry">
            <mxPoint x="440.0344827586207" y="450" as="sourcePoint" />
            <mxPoint x="340.0344827586207" y="500" as="targetPoint" />
          </mxGeometry>
        </mxCell>
        <mxCell id="60e70716793133e9-42" style="edgeStyle=orthogonalEdgeStyle;rounded=0;html=1;labelBackgroundColor=none;startSize=5;endArrow=classicThin;endFill=1;endSize=5;jettySize=auto;orthogonalLoop=1;strokeWidth=1;fontFamily=Verdana;fontSize=8" parent="1" edge="1">
          <mxGeometry relative="1" as="geometry">
            <mxPoint x="340.0344827586207" y="540" as="sourcePoint" />
            <mxPoint x="340.0344827586207" y="570.0206896551724" as="targetPoint" />
          </mxGeometry>
        </mxCell>
        <mxCell id="60e70716793133e9-57" style="edgeStyle=orthogonalEdgeStyle;rounded=0;html=1;labelBackgroundColor=none;startSize=5;endArrow=classicThin;endFill=1;endSize=5;jettySize=auto;orthogonalLoop=1;strokeWidth=1;fontFamily=Verdana;fontSize=8" parent="1" edge="1">
          <mxGeometry relative="1" as="geometry">
            <mxPoint x="340" y="1239.9999999999998" as="sourcePoint" />
            <mxPoint x="340" y="1289.9999999999998" as="targetPoint" />
          </mxGeometry>
        </mxCell>
        <mxCell id="G2AsAImBGB42HTjXpqPa-5" value="" style="edgeStyle=orthogonalEdgeStyle;rounded=0;orthogonalLoop=1;jettySize=auto;html=1;" edge="1" parent="1" source="G2AsAImBGB42HTjXpqPa-3">
          <mxGeometry relative="1" as="geometry">
            <mxPoint x="250" y="290" as="targetPoint" />
          </mxGeometry>
        </mxCell>
        <mxCell id="G2AsAImBGB42HTjXpqPa-3" value="&lt;font style=&quot;font-size: 8px&quot;&gt;add 2 to the value of n&lt;/font&gt;" style="rounded=0;whiteSpace=wrap;html=1;" vertex="1" parent="1">
          <mxGeometry x="130" y="270" width="90" height="40" as="geometry" />
        </mxCell>
        <mxCell id="G2AsAImBGB42HTjXpqPa-10" value="output false" style="rounded=1;whiteSpace=wrap;html=1;shadow=1;labelBackgroundColor=none;strokeWidth=1;fontFamily=Verdana;fontSize=8;align=center;" vertex="1" parent="1">
          <mxGeometry x="290" y="500" width="100" height="40" as="geometry" />
        </mxCell>
        <mxCell id="G2AsAImBGB42HTjXpqPa-11" value="End" style="strokeWidth=1;html=1;shape=mxgraph.flowchart.terminator;whiteSpace=wrap;rounded=0;shadow=1;labelBackgroundColor=none;fontFamily=Verdana;fontSize=8;align=center;" vertex="1" parent="1">
          <mxGeometry x="310" y="570" width="60" height="30" as="geometry" />
        </mxCell>
        <mxCell id="G2AsAImBGB42HTjXpqPa-13" value="No" style="text;html=1;align=center;verticalAlign=middle;resizable=0;points=[];autosize=1;" vertex="1" parent="1">
          <mxGeometry x="410" y="290" width="30" height="20" as="geometry" />
        </mxCell>
        <mxCell id="G2AsAImBGB42HTjXpqPa-14" value="End" style="strokeWidth=1;html=1;shape=mxgraph.flowchart.terminator;whiteSpace=wrap;rounded=0;shadow=1;labelBackgroundColor=none;fontFamily=Verdana;fontSize=8;align=center;" vertex="1" parent="1">
          <mxGeometry x="670" y="230" width="60" height="30" as="geometry" />
        </mxCell>
      </root>
    </mxGraphModel>
  </diagram>
</mxfile>
